<?xml version="1.0" encoding="UTF-8" standalone="no"?><svg xmlns="http://www.w3.org/2000/svg" xmlns:xlink="http://www.w3.org/1999/xlink" contentScriptType="application/ecmascript" contentStyleType="text/css" height="812px" preserveAspectRatio="none" style="width:881px;height:812px;background:#FFFFFF;" version="1.1" viewBox="0 0 881 812" width="881px" zoomAndPan="magnify"><defs><filter height="300%" id="frn39818s813" width="300%" x="-1" y="-1"><feGaussianBlur result="blurOut" stdDeviation="2.0"/><feColorMatrix in="blurOut" result="blurOut2" type="matrix" values="0 0 0 0 0 0 0 0 0 0 0 0 0 0 0 0 0 0 .4 0"/><feOffset dx="4.0" dy="4.0" in="blurOut2" result="blurOut3"/><feBlend in="SourceGraphic" in2="blurOut3" mode="normal"/></filter></defs><g><!--MD5=[33362f41292c7b9c0d32f97baeba92b7]
cluster neural_network.py--><polygon fill="#FFFFFF" filter="url(#frn39818s813)" points="392,6,529,6,536,28.4883,667,28.4883,667,278,392,278,392,6" style="stroke:#000000;stroke-width:1.5;"/><line style="stroke:#000000;stroke-width:1.5;" x1="392" x2="536" y1="28.4883" y2="28.4883"/><text fill="#000000" font-family="sans-serif" font-size="14" font-weight="bold" lengthAdjust="spacing" textLength="131" x="396" y="21.5352">neural_network.py</text><!--MD5=[314d53736e1dd588668c548d44a96410]
cluster loss.py--><polygon fill="#FFFFFF" filter="url(#frn39818s813)" points="16,308.5,72,308.5,79,330.9883,391,330.9883,391,548,16,548,16,308.5" style="stroke:#000000;stroke-width:1.5;"/><line style="stroke:#000000;stroke-width:1.5;" x1="16" x2="79" y1="330.9883" y2="330.9883"/><text fill="#000000" font-family="sans-serif" font-size="14" font-weight="bold" lengthAdjust="spacing" textLength="50" x="20" y="324.0352">loss.py</text><!--MD5=[0997dab451868b1bfe6ae38230969acb]
cluster layer.py--><polygon fill="#FFFFFF" filter="url(#frn39818s813)" points="415,302,476,302,483,324.4883,622,324.4883,622,440,415,440,415,302" style="stroke:#000000;stroke-width:1.5;"/><line style="stroke:#000000;stroke-width:1.5;" x1="415" x2="483" y1="324.4883" y2="324.4883"/><text fill="#000000" font-family="sans-serif" font-size="14" font-weight="bold" lengthAdjust="spacing" textLength="55" x="419" y="317.5352">layer.py</text><!--MD5=[9a696c3487f3096bda4a1e8824454a6e]
cluster operation.py--><polygon fill="#FFFFFF" filter="url(#frn39818s813)" points="296,572,391,572,398,594.4883,864,594.4883,864,805,296,805,296,572" style="stroke:#000000;stroke-width:1.5;"/><line style="stroke:#000000;stroke-width:1.5;" x1="296" x2="398" y1="594.4883" y2="594.4883"/><text fill="#000000" font-family="sans-serif" font-size="14" font-weight="bold" lengthAdjust="spacing" textLength="89" x="300" y="587.5352">operation.py</text><!--MD5=[3512c909caa28192c0057f20071d7997]
class Trainer--><rect codeLine="2" fill="#FEFECE" filter="url(#frn39818s813)" height="73.9102" id="Trainer" style="stroke:#A80036;stroke-width:1.5;" width="83" x="494.5" y="41"/><ellipse cx="513.55" cy="57" fill="#ADD1B2" rx="11" ry="11" style="stroke:#A80036;stroke-width:1.0;"/><path d="M516.0231,63.1431 Q515.4421,63.4419 514.8029,63.5913 Q514.1638,63.7407 513.4582,63.7407 Q510.9514,63.7407 509.6315,62.0889 Q508.3117,60.437 508.3117,57.3159 Q508.3117,54.1865 509.6315,52.5347 Q510.9514,50.8828 513.4582,50.8828 Q514.1638,50.8828 514.8112,51.0322 Q515.4587,51.1816 516.0231,51.4805 L516.0231,54.2031 Q515.3923,53.6221 514.7988,53.3523 Q514.2053,53.0825 513.5744,53.0825 Q512.2297,53.0825 511.5449,54.1492 Q510.8601,55.2158 510.8601,57.3159 Q510.8601,59.4077 511.5449,60.4744 Q512.2297,61.541 513.5744,61.541 Q514.2053,61.541 514.7988,61.2712 Q515.3923,61.0015 516.0231,60.4204 Z " fill="#000000"/><text fill="#000000" font-family="sans-serif" font-size="12" lengthAdjust="spacing" textLength="42" x="528.45" y="61.5352">Trainer</text><line style="stroke:#A80036;stroke-width:1.5;" x1="495.5" x2="576.5" y1="73" y2="73"/><text fill="#000000" font-family="sans-serif" font-size="11" lengthAdjust="spacing" textLength="71" x="500.5" y="87.6348">learning_rate</text><line style="stroke:#A80036;stroke-width:1.5;" x1="495.5" x2="576.5" y1="93.9551" y2="93.9551"/><text fill="#000000" font-family="sans-serif" font-size="11" lengthAdjust="spacing" textLength="19" x="500.5" y="108.5898">fit()</text><!--MD5=[9203089bdc7a50ec9de9048256c2ca78]
class NeuralNetwork--><rect codeLine="6" fill="#FEFECE" filter="url(#frn39818s813)" height="86.8652" id="NeuralNetwork" style="stroke:#A80036;stroke-width:1.5;" width="118" x="408" y="175"/><ellipse cx="423" cy="191" fill="#ADD1B2" rx="11" ry="11" style="stroke:#A80036;stroke-width:1.0;"/><path d="M425.4731,197.1431 Q424.8921,197.4419 424.2529,197.5913 Q423.6138,197.7407 422.9082,197.7407 Q420.4014,197.7407 419.0815,196.0889 Q417.7617,194.437 417.7617,191.3159 Q417.7617,188.1865 419.0815,186.5347 Q420.4014,184.8828 422.9082,184.8828 Q423.6138,184.8828 424.2612,185.0322 Q424.9087,185.1816 425.4731,185.4805 L425.4731,188.2031 Q424.8423,187.6221 424.2488,187.3523 Q423.6553,187.0825 423.0244,187.0825 Q421.6797,187.0825 420.9949,188.1492 Q420.3101,189.2158 420.3101,191.3159 Q420.3101,193.4077 420.9949,194.4744 Q421.6797,195.541 423.0244,195.541 Q423.6553,195.541 424.2488,195.2712 Q424.8423,195.0015 425.4731,194.4204 Z " fill="#000000"/><text fill="#000000" font-family="sans-serif" font-size="12" lengthAdjust="spacing" textLength="86" x="437" y="195.5352">NeuralNetwork</text><line style="stroke:#A80036;stroke-width:1.5;" x1="409" x2="525" y1="207" y2="207"/><text fill="#000000" font-family="sans-serif" font-size="11" lengthAdjust="spacing" textLength="32" x="414" y="221.6348">layers</text><line style="stroke:#A80036;stroke-width:1.5;" x1="409" x2="525" y1="227.9551" y2="227.9551"/><text fill="#000000" font-family="sans-serif" font-size="11" lengthAdjust="spacing" textLength="50" x="414" y="242.5898">forward()</text><text fill="#000000" font-family="sans-serif" font-size="11" lengthAdjust="spacing" textLength="59" x="414" y="255.5449">backward()</text><!--MD5=[024a9d479d82f89a43005ae8d45cd8ac]
class Optimizer--><rect codeLine="11" fill="#FEFECE" filter="url(#frn39818s813)" height="60.9551" id="Optimizer" style="stroke:#A80036;stroke-width:1.5;" width="89" x="561.5" y="188"/><ellipse cx="576.5" cy="204" fill="#ADD1B2" rx="11" ry="11" style="stroke:#A80036;stroke-width:1.0;"/><path d="M578.9731,210.1431 Q578.3921,210.4419 577.7529,210.5913 Q577.1138,210.7407 576.4082,210.7407 Q573.9014,210.7407 572.5815,209.0889 Q571.2617,207.437 571.2617,204.3159 Q571.2617,201.1865 572.5815,199.5347 Q573.9014,197.8828 576.4082,197.8828 Q577.1138,197.8828 577.7612,198.0322 Q578.4087,198.1816 578.9731,198.4805 L578.9731,201.2031 Q578.3423,200.6221 577.7488,200.3523 Q577.1553,200.0825 576.5244,200.0825 Q575.1797,200.0825 574.4949,201.1492 Q573.8101,202.2158 573.8101,204.3159 Q573.8101,206.4077 574.4949,207.4744 Q575.1797,208.541 576.5244,208.541 Q577.1553,208.541 577.7488,208.2712 Q578.3423,208.0015 578.9731,207.4204 Z " fill="#000000"/><text fill="#000000" font-family="sans-serif" font-size="12" lengthAdjust="spacing" textLength="57" x="590.5" y="208.5352">Optimizer</text><line style="stroke:#A80036;stroke-width:1.5;" x1="562.5" x2="649.5" y1="220" y2="220"/><line style="stroke:#A80036;stroke-width:1.5;" x1="562.5" x2="649.5" y1="228" y2="228"/><text fill="#000000" font-family="sans-serif" font-size="11" lengthAdjust="spacing" textLength="31" x="567.5" y="242.6348">step()</text><!--MD5=[954de87667093799d95f7bfd06b1505b]
class Loss--><rect codeLine="19" fill="#FEFECE" filter="url(#frn39818s813)" height="73.9102" id="Loss" style="stroke:#A80036;stroke-width:1.5;" width="71" x="249.5" y="343.5"/><ellipse cx="270.8" cy="359.5" fill="#A9DCDF" rx="11" ry="11" style="stroke:#A80036;stroke-width:1.0;"/><path d="M270.6633,354.8481 L269.5095,359.9199 L271.8254,359.9199 Z M269.1691,352.6069 L272.1657,352.6069 L275.5109,365 L273.0622,365 L272.2985,361.937 L269.0197,361.937 L268.2727,365 L265.8239,365 Z " fill="#000000"/><text fill="#000000" font-family="sans-serif" font-size="12" font-style="italic" lengthAdjust="spacing" textLength="25" x="286.2" y="364.0352">Loss</text><line style="stroke:#A80036;stroke-width:1.5;" x1="250.5" x2="319.5" y1="375.5" y2="375.5"/><line style="stroke:#A80036;stroke-width:1.5;" x1="250.5" x2="319.5" y1="383.5" y2="383.5"/><text fill="#000000" font-family="sans-serif" font-size="11" lengthAdjust="spacing" textLength="50" x="255.5" y="398.1348">forward()</text><text fill="#000000" font-family="sans-serif" font-size="11" lengthAdjust="spacing" textLength="59" x="255.5" y="411.0898">backward()</text><!--MD5=[a12d45cacc73dcaae9af4349996549bf]
class MeanSquareLoss--><rect codeLine="23" fill="#FEFECE" filter="url(#frn39818s813)" height="48" id="MeanSquareLoss" style="stroke:#A80036;stroke-width:1.5;" width="128" x="32" y="484"/><ellipse cx="47" cy="500" fill="#ADD1B2" rx="11" ry="11" style="stroke:#A80036;stroke-width:1.0;"/><path d="M49.4731,506.1431 Q48.8921,506.4419 48.2529,506.5913 Q47.6138,506.7407 46.9082,506.7407 Q44.4014,506.7407 43.0815,505.0889 Q41.7617,503.437 41.7617,500.3159 Q41.7617,497.1865 43.0815,495.5347 Q44.4014,493.8828 46.9082,493.8828 Q47.6138,493.8828 48.2612,494.0322 Q48.9087,494.1816 49.4731,494.4805 L49.4731,497.2031 Q48.8423,496.6221 48.2488,496.3523 Q47.6553,496.0825 47.0244,496.0825 Q45.6797,496.0825 44.9949,497.1492 Q44.3101,498.2158 44.3101,500.3159 Q44.3101,502.4077 44.9949,503.4744 Q45.6797,504.541 47.0244,504.541 Q47.6553,504.541 48.2488,504.2712 Q48.8423,504.0015 49.4731,503.4204 Z " fill="#000000"/><text fill="#000000" font-family="sans-serif" font-size="12" lengthAdjust="spacing" textLength="96" x="61" y="504.5352">MeanSquareLoss</text><line style="stroke:#A80036;stroke-width:1.5;" x1="33" x2="159" y1="516" y2="516"/><line style="stroke:#A80036;stroke-width:1.5;" x1="33" x2="159" y1="524" y2="524"/><!--MD5=[c81f1c586dcd9121af331977bd43ca50]
class SoftmaxCrossEntropyLoss--><rect codeLine="24" fill="#FEFECE" filter="url(#frn39818s813)" height="48" id="SoftmaxCrossEntropyLoss" style="stroke:#A80036;stroke-width:1.5;" width="179" x="195.5" y="484"/><ellipse cx="210.5" cy="500" fill="#ADD1B2" rx="11" ry="11" style="stroke:#A80036;stroke-width:1.0;"/><path d="M212.9731,506.1431 Q212.3921,506.4419 211.7529,506.5913 Q211.1138,506.7407 210.4082,506.7407 Q207.9014,506.7407 206.5815,505.0889 Q205.2617,503.437 205.2617,500.3159 Q205.2617,497.1865 206.5815,495.5347 Q207.9014,493.8828 210.4082,493.8828 Q211.1138,493.8828 211.7612,494.0322 Q212.4087,494.1816 212.9731,494.4805 L212.9731,497.2031 Q212.3423,496.6221 211.7488,496.3523 Q211.1553,496.0825 210.5244,496.0825 Q209.1797,496.0825 208.4949,497.1492 Q207.8101,498.2158 207.8101,500.3159 Q207.8101,502.4077 208.4949,503.4744 Q209.1797,504.541 210.5244,504.541 Q211.1553,504.541 211.7488,504.2712 Q212.3423,504.0015 212.9731,503.4204 Z " fill="#000000"/><text fill="#000000" font-family="sans-serif" font-size="12" lengthAdjust="spacing" textLength="147" x="224.5" y="504.5352">SoftmaxCrossEntropyLoss</text><line style="stroke:#A80036;stroke-width:1.5;" x1="196.5" x2="373.5" y1="516" y2="516"/><line style="stroke:#A80036;stroke-width:1.5;" x1="196.5" x2="373.5" y1="524" y2="524"/><!--MD5=[a97cfd095b0077d714bcddc8cbc855aa]
class Layer--><rect codeLine="32" fill="#FEFECE" filter="url(#frn39818s813)" height="86.8652" id="Layer" style="stroke:#A80036;stroke-width:1.5;" width="71" x="431.5" y="337"/><ellipse cx="450.1" cy="353" fill="#A9DCDF" rx="11" ry="11" style="stroke:#A80036;stroke-width:1.0;"/><path d="M449.9633,348.3481 L448.8095,353.4199 L451.1254,353.4199 Z M448.4691,346.1069 L451.4657,346.1069 L454.8109,358.5 L452.3622,358.5 L451.5985,355.437 L448.3197,355.437 L447.5727,358.5 L445.1239,358.5 Z " fill="#000000"/><text fill="#000000" font-family="sans-serif" font-size="12" font-style="italic" lengthAdjust="spacing" textLength="31" x="464.9" y="357.5352">Layer</text><line style="stroke:#A80036;stroke-width:1.5;" x1="432.5" x2="501.5" y1="369" y2="369"/><text fill="#000000" font-family="sans-serif" font-size="11" lengthAdjust="spacing" textLength="58" x="437.5" y="383.6348">operations</text><line style="stroke:#A80036;stroke-width:1.5;" x1="432.5" x2="501.5" y1="389.9551" y2="389.9551"/><text fill="#000000" font-family="sans-serif" font-size="11" lengthAdjust="spacing" textLength="50" x="437.5" y="404.5898">forward()</text><text fill="#000000" font-family="sans-serif" font-size="11" lengthAdjust="spacing" textLength="59" x="437.5" y="417.5449">backward()</text><!--MD5=[529699ae87314006e87b27632489edee]
class Dense--><rect codeLine="37" fill="#FEFECE" filter="url(#frn39818s813)" height="60.9551" id="Dense" style="stroke:#A80036;stroke-width:1.5;" width="68" x="538" y="350"/><ellipse cx="553" cy="366" fill="#ADD1B2" rx="11" ry="11" style="stroke:#A80036;stroke-width:1.0;"/><path d="M555.4731,372.1431 Q554.8921,372.4419 554.2529,372.5913 Q553.6138,372.7407 552.9082,372.7407 Q550.4014,372.7407 549.0815,371.0889 Q547.7617,369.437 547.7617,366.3159 Q547.7617,363.1865 549.0815,361.5347 Q550.4014,359.8828 552.9082,359.8828 Q553.6138,359.8828 554.2612,360.0322 Q554.9087,360.1816 555.4731,360.4805 L555.4731,363.2031 Q554.8423,362.6221 554.2488,362.3523 Q553.6553,362.0825 553.0244,362.0825 Q551.6797,362.0825 550.9949,363.1492 Q550.3101,364.2158 550.3101,366.3159 Q550.3101,368.4077 550.9949,369.4744 Q551.6797,370.541 553.0244,370.541 Q553.6553,370.541 554.2488,370.2712 Q554.8423,370.0015 555.4731,369.4204 Z " fill="#000000"/><text fill="#000000" font-family="sans-serif" font-size="12" lengthAdjust="spacing" textLength="36" x="567" y="370.5352">Dense</text><line style="stroke:#A80036;stroke-width:1.5;" x1="539" x2="605" y1="382" y2="382"/><text fill="#000000" font-family="sans-serif" font-size="11" lengthAdjust="spacing" textLength="45" x="544" y="396.6348">neurons</text><line style="stroke:#A80036;stroke-width:1.5;" x1="539" x2="605" y1="402.9551" y2="402.9551"/><!--MD5=[cca5d97aaf46870920fae66c9bd85cdd]
class Operation--><rect codeLine="45" fill="#FEFECE" filter="url(#frn39818s813)" height="73.9102" id="Operation" style="stroke:#A80036;stroke-width:1.5;" width="89" x="422.5" y="607"/><ellipse cx="437.5" cy="623" fill="#A9DCDF" rx="11" ry="11" style="stroke:#A80036;stroke-width:1.0;"/><path d="M437.3633,618.3481 L436.2095,623.4199 L438.5254,623.4199 Z M435.8691,616.1069 L438.8657,616.1069 L442.2109,628.5 L439.7622,628.5 L438.9985,625.437 L435.7197,625.437 L434.9727,628.5 L432.5239,628.5 Z " fill="#000000"/><text fill="#000000" font-family="sans-serif" font-size="12" font-style="italic" lengthAdjust="spacing" textLength="57" x="451.5" y="627.5352">Operation</text><line style="stroke:#A80036;stroke-width:1.5;" x1="423.5" x2="510.5" y1="639" y2="639"/><line style="stroke:#A80036;stroke-width:1.5;" x1="423.5" x2="510.5" y1="647" y2="647"/><text fill="#000000" font-family="sans-serif" font-size="11" lengthAdjust="spacing" textLength="44" x="428.5" y="661.6348">output()</text><text fill="#000000" font-family="sans-serif" font-size="11" lengthAdjust="spacing" textLength="67" x="428.5" y="674.5898">input_grad()</text><!--MD5=[eeb3607d1d7382a59c4cfbc772ec8eee]
class ParamOperation--><rect codeLine="49" fill="#FEFECE" filter="url(#frn39818s813)" height="73.9102" id="ParamOperation" style="stroke:#A80036;stroke-width:1.5;" width="126" x="596" y="607"/><ellipse cx="611" cy="623" fill="#A9DCDF" rx="11" ry="11" style="stroke:#A80036;stroke-width:1.0;"/><path d="M610.8633,618.3481 L609.7095,623.4199 L612.0254,623.4199 Z M609.3691,616.1069 L612.3657,616.1069 L615.7109,628.5 L613.2622,628.5 L612.4985,625.437 L609.2197,625.437 L608.4727,628.5 L606.0239,628.5 Z " fill="#000000"/><text fill="#000000" font-family="sans-serif" font-size="12" font-style="italic" lengthAdjust="spacing" textLength="94" x="625" y="627.5352">ParamOperation</text><line style="stroke:#A80036;stroke-width:1.5;" x1="597" x2="721" y1="639" y2="639"/><text fill="#000000" font-family="sans-serif" font-size="11" lengthAdjust="spacing" textLength="34" x="602" y="653.6348">param</text><line style="stroke:#A80036;stroke-width:1.5;" x1="597" x2="721" y1="659.9551" y2="659.9551"/><text fill="#000000" font-family="sans-serif" font-size="11" lengthAdjust="spacing" textLength="73" x="602" y="674.5898">param_grad()</text><!--MD5=[ecc520104a27a4003dbc366af4d44b7a]
class Sigmod--><rect codeLine="54" fill="#FEFECE" filter="url(#frn39818s813)" height="48" id="Sigmod" style="stroke:#A80036;stroke-width:1.5;" width="74" x="312" y="741"/><ellipse cx="327" cy="757" fill="#ADD1B2" rx="11" ry="11" style="stroke:#A80036;stroke-width:1.0;"/><path d="M329.4731,763.1431 Q328.8921,763.4419 328.2529,763.5913 Q327.6138,763.7407 326.9082,763.7407 Q324.4014,763.7407 323.0815,762.0889 Q321.7617,760.437 321.7617,757.3159 Q321.7617,754.1865 323.0815,752.5347 Q324.4014,750.8828 326.9082,750.8828 Q327.6138,750.8828 328.2612,751.0322 Q328.9087,751.1816 329.4731,751.4805 L329.4731,754.2031 Q328.8423,753.6221 328.2488,753.3523 Q327.6553,753.0825 327.0244,753.0825 Q325.6797,753.0825 324.9949,754.1492 Q324.3101,755.2158 324.3101,757.3159 Q324.3101,759.4077 324.9949,760.4744 Q325.6797,761.541 327.0244,761.541 Q327.6553,761.541 328.2488,761.2712 Q328.8423,761.0015 329.4731,760.4204 Z " fill="#000000"/><text fill="#000000" font-family="sans-serif" font-size="12" lengthAdjust="spacing" textLength="42" x="341" y="761.5352">Sigmod</text><line style="stroke:#A80036;stroke-width:1.5;" x1="313" x2="385" y1="773" y2="773"/><line style="stroke:#A80036;stroke-width:1.5;" x1="313" x2="385" y1="781" y2="781"/><!--MD5=[add4f38351b856c5ce44688cf367e84d]
class Linear--><rect codeLine="55" fill="#FEFECE" filter="url(#frn39818s813)" height="48" id="Linear" style="stroke:#A80036;stroke-width:1.5;" width="67" x="421.5" y="741"/><ellipse cx="436.5" cy="757" fill="#ADD1B2" rx="11" ry="11" style="stroke:#A80036;stroke-width:1.0;"/><path d="M438.9731,763.1431 Q438.3921,763.4419 437.7529,763.5913 Q437.1138,763.7407 436.4082,763.7407 Q433.9014,763.7407 432.5815,762.0889 Q431.2617,760.437 431.2617,757.3159 Q431.2617,754.1865 432.5815,752.5347 Q433.9014,750.8828 436.4082,750.8828 Q437.1138,750.8828 437.7612,751.0322 Q438.4087,751.1816 438.9731,751.4805 L438.9731,754.2031 Q438.3423,753.6221 437.7488,753.3523 Q437.1553,753.0825 436.5244,753.0825 Q435.1797,753.0825 434.4949,754.1492 Q433.8101,755.2158 433.8101,757.3159 Q433.8101,759.4077 434.4949,760.4744 Q435.1797,761.541 436.5244,761.541 Q437.1553,761.541 437.7488,761.2712 Q438.3423,761.0015 438.9731,760.4204 Z " fill="#000000"/><text fill="#000000" font-family="sans-serif" font-size="12" lengthAdjust="spacing" textLength="35" x="450.5" y="761.5352">Linear</text><line style="stroke:#A80036;stroke-width:1.5;" x1="422.5" x2="487.5" y1="773" y2="773"/><line style="stroke:#A80036;stroke-width:1.5;" x1="422.5" x2="487.5" y1="781" y2="781"/><!--MD5=[1c520b1e8126db39f481e8e08a6b1502]
class Tanh--><rect codeLine="56" fill="#FEFECE" filter="url(#frn39818s813)" height="48" id="Tanh" style="stroke:#A80036;stroke-width:1.5;" width="61" x="523.5" y="741"/><ellipse cx="538.5" cy="757" fill="#ADD1B2" rx="11" ry="11" style="stroke:#A80036;stroke-width:1.0;"/><path d="M540.9731,763.1431 Q540.3921,763.4419 539.7529,763.5913 Q539.1138,763.7407 538.4082,763.7407 Q535.9014,763.7407 534.5815,762.0889 Q533.2617,760.437 533.2617,757.3159 Q533.2617,754.1865 534.5815,752.5347 Q535.9014,750.8828 538.4082,750.8828 Q539.1138,750.8828 539.7612,751.0322 Q540.4087,751.1816 540.9731,751.4805 L540.9731,754.2031 Q540.3423,753.6221 539.7488,753.3523 Q539.1553,753.0825 538.5244,753.0825 Q537.1797,753.0825 536.4949,754.1492 Q535.8101,755.2158 535.8101,757.3159 Q535.8101,759.4077 536.4949,760.4744 Q537.1797,761.541 538.5244,761.541 Q539.1553,761.541 539.7488,761.2712 Q540.3423,761.0015 540.9731,760.4204 Z " fill="#000000"/><text fill="#000000" font-family="sans-serif" font-size="12" lengthAdjust="spacing" textLength="29" x="552.5" y="761.5352">Tanh</text><line style="stroke:#A80036;stroke-width:1.5;" x1="524.5" x2="583.5" y1="773" y2="773"/><line style="stroke:#A80036;stroke-width:1.5;" x1="524.5" x2="583.5" y1="781" y2="781"/><!--MD5=[6b0ae00b750283edd6e3b9ed06e86dbf]
class WeightMultiply--><rect codeLine="60" fill="#FEFECE" filter="url(#frn39818s813)" height="48" id="WeightMultiply" style="stroke:#A80036;stroke-width:1.5;" width="114" x="734" y="741"/><ellipse cx="749" cy="757" fill="#ADD1B2" rx="11" ry="11" style="stroke:#A80036;stroke-width:1.0;"/><path d="M751.4731,763.1431 Q750.8921,763.4419 750.2529,763.5913 Q749.6138,763.7407 748.9082,763.7407 Q746.4014,763.7407 745.0815,762.0889 Q743.7617,760.437 743.7617,757.3159 Q743.7617,754.1865 745.0815,752.5347 Q746.4014,750.8828 748.9082,750.8828 Q749.6138,750.8828 750.2612,751.0322 Q750.9087,751.1816 751.4731,751.4805 L751.4731,754.2031 Q750.8423,753.6221 750.2488,753.3523 Q749.6553,753.0825 749.0244,753.0825 Q747.6797,753.0825 746.9949,754.1492 Q746.3101,755.2158 746.3101,757.3159 Q746.3101,759.4077 746.9949,760.4744 Q747.6797,761.541 749.0244,761.541 Q749.6553,761.541 750.2488,761.2712 Q750.8423,761.0015 751.4731,760.4204 Z " fill="#000000"/><text fill="#000000" font-family="sans-serif" font-size="12" lengthAdjust="spacing" textLength="82" x="763" y="761.5352">WeightMultiply</text><line style="stroke:#A80036;stroke-width:1.5;" x1="735" x2="847" y1="773" y2="773"/><line style="stroke:#A80036;stroke-width:1.5;" x1="735" x2="847" y1="781" y2="781"/><!--MD5=[206a395d8f3e3e091b1869715626f17f]
class BiasAdd--><rect codeLine="61" fill="#FEFECE" filter="url(#frn39818s813)" height="48" id="BiasAdd" style="stroke:#A80036;stroke-width:1.5;" width="79" x="619.5" y="741"/><ellipse cx="634.5" cy="757" fill="#ADD1B2" rx="11" ry="11" style="stroke:#A80036;stroke-width:1.0;"/><path d="M636.9731,763.1431 Q636.3921,763.4419 635.7529,763.5913 Q635.1138,763.7407 634.4082,763.7407 Q631.9014,763.7407 630.5815,762.0889 Q629.2617,760.437 629.2617,757.3159 Q629.2617,754.1865 630.5815,752.5347 Q631.9014,750.8828 634.4082,750.8828 Q635.1138,750.8828 635.7612,751.0322 Q636.4087,751.1816 636.9731,751.4805 L636.9731,754.2031 Q636.3423,753.6221 635.7488,753.3523 Q635.1553,753.0825 634.5244,753.0825 Q633.1797,753.0825 632.4949,754.1492 Q631.8101,755.2158 631.8101,757.3159 Q631.8101,759.4077 632.4949,760.4744 Q633.1797,761.541 634.5244,761.541 Q635.1553,761.541 635.7488,761.2712 Q636.3423,761.0015 636.9731,760.4204 Z " fill="#000000"/><text fill="#000000" font-family="sans-serif" font-size="12" lengthAdjust="spacing" textLength="47" x="648.5" y="761.5352">BiasAdd</text><line style="stroke:#A80036;stroke-width:1.5;" x1="620.5" x2="697.5" y1="773" y2="773"/><line style="stroke:#A80036;stroke-width:1.5;" x1="620.5" x2="697.5" y1="781" y2="781"/><!--MD5=[7565e44abff8d97d899b9e3194dd9eeb]
reverse link Trainer to NeuralNetwork--><path codeLine="14" d="M512.05,127.06 C504.33,142.58 495.82,159.66 488.29,174.76 " fill="none" id="Trainer-backto-NeuralNetwork" style="stroke:#A80036;stroke-width:1.0;"/><polygon fill="#A80036" points="518.05,115.03,511.7943,118.6169,512.6993,125.771,518.955,122.1841,518.05,115.03" style="stroke:#A80036;stroke-width:1.0;"/><!--MD5=[409653669d9673e6ff47404b258c41a5]
reverse link Trainer to Optimizer--><path codeLine="15" d="M560.2,126.88 C570.41,147.09 581.99,170 590.95,187.73 " fill="none" id="Trainer-backto-Optimizer" style="stroke:#A80036;stroke-width:1.0;"/><polygon fill="#A80036" points="554.21,115.03,553.3437,122.1889,559.6187,125.7419,560.485,118.5831,554.21,115.03" style="stroke:#A80036;stroke-width:1.0;"/><!--MD5=[1a6d8e7f4bd1520ea95bd6cbed75ea34]
reverse link Loss to MeanSquareLoss--><path codeLine="25" d="M244.98,408.08 C211.1,430.57 163.04,462.49 130.75,483.92 " fill="none" id="Loss-backto-MeanSquareLoss" style="stroke:#A80036;stroke-width:1.0;"/><polygon fill="#A80036" points="249.45,405.11,239.7362,406.7356,245.2788,407.867,244.1474,413.4096,249.45,405.11" style="stroke:#A80036;stroke-width:1.0;"/><!--MD5=[681b0977c584cef4749fe7ea389e85e2]
reverse link Loss to SoftmaxCrossEntropyLoss--><path codeLine="26" d="M285,422.87 C285,443.14 285,466.78 285,483.83 " fill="none" id="Loss-backto-SoftmaxCrossEntropyLoss" style="stroke:#A80036;stroke-width:1.0;"/><polygon fill="#A80036" points="285,417.8,281,426.8,285,422.8,289,426.8,285,417.8" style="stroke:#A80036;stroke-width:1.0;"/><!--MD5=[b7a202f21a47963e37a1c020b1b80100]
reverse link NeuralNetwork to Loss--><path codeLine="29" d="M408.25,271.15 C379.38,296.53 345.54,326.28 320.63,348.18 " fill="none" id="NeuralNetwork-backto-Loss" style="stroke:#A80036;stroke-width:1.0;"/><polygon fill="#A80036" points="418.23,262.38,411.0825,263.3355,409.2154,270.3007,416.3629,269.3452,418.23,262.38" style="stroke:#A80036;stroke-width:1.0;"/><!--MD5=[41af6aaef126adbad02f80ac12126185]
reverse link Layer to Dense--><path codeLine="40" d="M507.91,380.5 C517.9,380.5 527.89,380.5 537.88,380.5 " fill="none" id="Layer-backto-Dense" style="stroke:#A80036;stroke-width:1.0;"/><polygon fill="#A80036" points="502.68,380.5,511.68,384.5,507.68,380.5,511.68,376.5,502.68,380.5" style="stroke:#A80036;stroke-width:1.0;"/><!--MD5=[1d67dba1644da8bbbe42dfed38f5fdae]
reverse link NeuralNetwork to Layer--><path codeLine="42" d="M467,275.54 C467,295.65 467,317.98 467,336.78 " fill="none" id="NeuralNetwork-backto-Layer" style="stroke:#A80036;stroke-width:1.0;"/><polygon fill="#A80036" points="467,262.38,463,268.38,467,274.38,471,268.38,467,262.38" style="stroke:#A80036;stroke-width:1.0;"/><!--MD5=[263952e747fb2d29aa83cabae1b30bf1]
link ParamOperation to Operation--><path codeLine="53" d="M595.96,644 C569.61,644 543.25,644 516.9,644 " fill="none" id="ParamOperation-to-Operation" style="stroke:#A80036;stroke-width:1.0;"/><polygon fill="#A80036" points="511.62,644,520.6314,647.9743,516.62,643.9857,520.6085,639.9743,511.62,644" style="stroke:#A80036;stroke-width:1.0;"/><!--MD5=[8a1310d02bf1522455b5fec08f2f9a11]
reverse link Operation to Sigmod--><path codeLine="57" d="M427.62,684.71 C409.14,703.36 387.75,724.92 371.95,740.85 " fill="none" id="Operation-backto-Sigmod" style="stroke:#A80036;stroke-width:1.0;"/><polygon fill="#A80036" points="431.28,681.03,422.1092,684.6212,427.766,684.5869,427.8002,690.2436,431.28,681.03" style="stroke:#A80036;stroke-width:1.0;"/><!--MD5=[c55ebe4b2ae156ae6d154c43f81aa0ad]
reverse link Operation to Linear--><path codeLine="58" d="M462.85,686.12 C461.01,704.43 458.9,725.32 457.33,740.85 " fill="none" id="Operation-backto-Linear" style="stroke:#A80036;stroke-width:1.0;"/><polygon fill="#A80036" points="463.37,681.03,458.4919,689.5859,462.8711,686.005,466.452,690.3842,463.37,681.03" style="stroke:#A80036;stroke-width:1.0;"/><!--MD5=[44773f5ad1dbb61ce5a7e6f98ae7ebb3]
reverse link Operation to Tanh--><path codeLine="59" d="M496.38,685.18 C509.93,703.71 525.53,725.05 537.08,740.85 " fill="none" id="Operation-backto-Tanh" style="stroke:#A80036;stroke-width:1.0;"/><polygon fill="#A80036" points="493.34,681.03,495.4411,690.6521,496.2987,685.0607,501.8901,685.9182,493.34,681.03" style="stroke:#A80036;stroke-width:1.0;"/><!--MD5=[2616bf8cc4254754bc9c741d004a2be8]
reverse link ParamOperation to WeightMultiply--><path codeLine="62" d="M702.79,684.48 C723.53,703.18 747.58,724.85 765.32,740.85 " fill="none" id="ParamOperation-backto-WeightMultiply" style="stroke:#A80036;stroke-width:1.0;"/><polygon fill="#A80036" points="698.96,681.03,702.9374,690.04,702.6629,684.3898,708.3131,684.1153,698.96,681.03" style="stroke:#A80036;stroke-width:1.0;"/><!--MD5=[f0fe7aef4fccaee46741797db14a497a]
reverse link ParamOperation to BiasAdd--><path codeLine="63" d="M659,686.12 C659,704.43 659,725.32 659,740.85 " fill="none" id="ParamOperation-backto-BiasAdd" style="stroke:#A80036;stroke-width:1.0;"/><polygon fill="#A80036" points="659,681.03,655,690.03,659,686.03,663,690.03,659,681.03" style="stroke:#A80036;stroke-width:1.0;"/><!--MD5=[a93ccac84316a9056261a9545e996195]
reverse link Layer to Operation--><path codeLine="65" d="M467,437.23 C467,488.44 467,562.85 467,606.75 " fill="none" id="Layer-backto-Operation" style="stroke:#A80036;stroke-width:1.0;"/><polygon fill="#A80036" points="467,424.1,463,430.1,467,436.1,471,430.1,467,424.1" style="stroke:#A80036;stroke-width:1.0;"/><!--MD5=[79a3be50165e9fc26ede6e7bbeb9ecf1]
link Optimizer to ParamOperation--><path codeLine="66" d="M613.11,249.09 C616.19,262.71 619.62,279.11 622,294 C640.16,407.56 651.66,543.39 656.44,606.91 " fill="none" id="Optimizer-ParamOperation" style="stroke:#A80036;stroke-width:1.0;stroke-dasharray:7.0,7.0;"/><!--MD5=[d8a57d6382e92b036d57160fb6cda631]
@startuml clazz
package neural_network.py{
	class Trainer{
		learning_rate
		fit()
	}
	class NeuralNetwork{
		layers
		forward()
		backward()
	}
	class Optimizer{
		step()
	}
	Trainer *- - NeuralNetwork
	Trainer *- - Optimizer
}

package loss.py{
	abstract class Loss{
		forward()
		backward()
	}
	class MeanSquareLoss{}
	class SoftmaxCrossEntropyLoss{}
	Loss <- - MeanSquareLoss
	Loss <- - SoftmaxCrossEntropyLoss
}

NeuralNetwork *- - Loss

package layer.py{
	abstract class Layer{
		operations
		forward()
		backward()
	}
	class Dense{
		neurons
	}
	Layer <- Dense
}
NeuralNetwork *- - Layer

package operation.py{
	abstract class Operation{
		output()
		input_grad()
	}
	abstract class ParamOperation{
		param
		param_grad()
	}
	ParamOperation -> Operation
	class Sigmod{}
	class Linear{}
	class Tanh{}
	Operation <- - Sigmod
	Operation <- - Linear
	Operation <- - Tanh
	class WeightMultiply{}
	class BiasAdd{}
	ParamOperation <- - WeightMultiply
	ParamOperation <- - BiasAdd
}
Layer *- - Operation
Optimizer .... ParamOperation
@enduml

PlantUML version 1.2021.7(Sun May 23 20:40:07 CST 2021)
(GPL source distribution)
Java Runtime: OpenJDK Runtime Environment
JVM: OpenJDK 64-Bit Server VM
Default Encoding: UTF-8
Language: zh
Country: CN
--></g></svg>